<?xml version="1.0" standalone="no"?>
<!DOCTYPE svg PUBLIC "-//W3C//DTD SVG 1.1//EN" "http://www.w3.org/Graphics/SVG/1.1/DTD/svg11.dtd">
<svg xmlns="http://www.w3.org/2000/svg" id="Layer_2" viewBox="0 0 361.1782 66.0597" width="361.1781921386719" height="66.05970001220703"><g id="Components"><g id="_6e081f1b-6072-4c82-a3a4-abd55409af5a_4"><path d="M92.8466,16.1133s.1678.2517.1678.4195v3.8594c0,.1678-.0545.3062-.1678.4195-.1091.1133-.2517.1678-.4153.1678h-9.1116c-.1678,0-.2517.0839-.2517.2517v29.059c0,.1678-.0545.3062-.1678.4195-.1091.1133-.2475.1678-.4153.1678h-4.5558c-.1678,0-.3062-.0545-.4153-.1678-.1091-.1133-.1678-.2517-.1678-.4195v-29.059c0-.1678-.0839-.2517-.2517-.2517h-8.776c-.1678,0-.3062-.0545-.4153-.1678-.1091-.1133-.1678-.2517-.1678-.4195v-3.8594c0-.1678.0545-.3062.1678-.4195.1091-.1133.2517-.1678.4153-.1678h24.1341c.1678,0,.3062.0545.4153.1678h-.0294.0084ZM95.4013,50.37l-7.0812-24.3606-.0545-.1972c0-.3356.193-.5034.5537-.5034h4.7194c.3608,0,.5831.1678.6964.5034l4.1111,16.6669s.0839.1384.1384.1384.1091-.0545.1384-.1384l4.3041-16.6669c.1133-.3356.3314-.5034.6922-.5034h4.1111c.3608,0,.5831.1678.6922.5034l4.4174,16.6669s.0839.1384.1384.1384.1091-.0545.1384-.1384l4.4174-16.6669c.1091-.3356.3314-.5034.6964-.5034l4.7149.0002c.193,0,.3314.0545.4153.1678.0839.1133.1091.2811.0839.474l-7.19,24.4149c-.1091.3356-.3062.5034-.6376.5034h-4.7488c-.3608,0-.5831-.1678-.6922-.5034l-4.3587-15.2154s-.0839-.1384-.1384-.1384-.1091.0545-.1384.1384l-4.0272,15.2154c-.1133.3356-.3314.5034-.6922.5034h-4.7236c-.3608,0-.5831-.1678-.6964-.5034v.0042ZM129.5364,49.2793c-1.8626-1.3424-3.1924-3.1882-3.9433-5.5375-.5537-1.7913-.8348-3.6916-.8348-5.6759,0-2.1269.2517-4.0272.8055-5.7053.7509-2.3199,2.0849-4.1405,3.9727-5.4536,1.8878-1.2879,4.1405-1.9591,6.8044-1.9591s4.6943.6418,6.5275,1.9591c1.8332,1.313,3.1379,3.1043,3.8888,5.399.5831,1.5941.8893,3.4945.8893,5.6759s-.2769,3.9979-.8348,5.7053c-.7509,2.3492-2.0556,4.2244-3.9182,5.5668-1.8584,1.3424-4.0566,2.0136-6.582,2.0136s-4.8621-.6712-6.7205-1.9843h-.0545v-.0042ZM139.3947,45.2269c.8893-.7006,1.5018-1.678,1.9171-2.9365.3314-1.0907.4992-2.4877.4992-4.195,0-1.7913-.1678-3.1882-.4992-4.195-.3608-1.2585-.9984-2.236-1.8878-2.9072s-1.9717-1.0362-3.2763-1.0362-2.2779.3356-3.1673,1.0362c-.8893.6712-1.527,1.6487-1.9423,2.9072-.3314,1.1746-.4992,2.5716-.4992,4.195s.1678,3.0204.4992,4.195c.3608,1.2585.9984,2.236,1.9171,2.9365.9145.7006,2.001,1.0362,3.3057,1.0362s2.2779-.3356,3.1379-1.0362h-.0042ZM166.0039,50.0344c-1.9171-.839-3.3896-1.9843-4.4425-3.4945-1.0278-1.5102-1.5564-3.2721-1.5564-5.2858v-1.2585c0-.1678.0545-.3062.1678-.4195.1091-.1133.2517-.1678.4153-.1678h4.4174c.1678,0,.3062.0545.4153.1678.1091.1133.1678.2517.1678.4195v.9523c0,1.5396.667,2.7981,2.0262,3.8301,1.3592,1.0068,3.1924,1.5102,5.5542,1.5102,2.0262,0,3.528-.4195,4.5558-1.2879,1.0278-.8684,1.527-1.9843,1.527-3.356,0-.9229-.2769-1.7326-.8348-2.3786-.5537-.6418-1.3592-1.2291-2.4163-1.7619-1.0278-.5328-2.6093-1.204-4.6943-1.9843-2.3324-.8684-4.2496-1.678-5.6927-2.4625s-2.668-1.8165-3.6371-3.1337c-.9733-1.313-1.4725-2.9659-1.4725-4.9208,0-2.9365,1.0571-5.2312,3.1673-6.9344,2.1101-1.7074,4.946-2.5464,8.4698-2.5464,2.4709,0,4.6649.4195,6.582,1.2879,1.8878.8684,3.3896,2.0682,4.4425,3.6077,1.0571,1.5396,1.5815,3.3267,1.5815,5.3697v.839c0,.1678-.0545.3062-.1678.4195-.1091.1133-.2517.1678-.4153.1678h-4.4719c-.1678,0-.3062-.0545-.4153-.1678-.1133-.1133-.1678-.2517-.1678-.4195v-.5579c0-1.5648-.6376-2.882-1.9171-3.9727-1.2795-1.0907-3.0288-1.6235-5.2774-1.6235-1.8039,0-3.2218.3901-4.2496,1.1452-.9984.7551-1.4976,1.8458-1.4976,3.2428,0,1.0068.2769,1.8165.8055,2.4331.5286.6418,1.334,1.204,2.387,1.7326,1.0571.5328,2.6932,1.1746,4.9166,1.9843,2.3324.8935,4.2202,1.7074,5.6381,2.4331,1.4179.7257,2.6093,1.7619,3.6119,3.075.9984,1.313,1.5018,2.9659,1.5018,4.9208,0,2.9911-1.1117,5.3697-3.3057,7.1316s-5.1935,2.6555-8.9984,2.6555c-2.5841,0-4.8327-.4195-6.7498-1.2585l.0294.0545v.0126ZM221.7769,27.2973c1.4431,1.5396,2.1646,3.6916,2.1646,6.4604v16.5285c0,.1678-.0545.3062-.1678.4195s-.2517.1678-.4153.1678h-4.4971c-.1678,0-.3062-.0545-.4153-.1678-.1133-.1133-.1678-.2517-.1678-.4195v-15.3245c0-1.5396-.4153-2.7394-1.2207-3.6371-.8054-.8935-1.8878-1.3424-3.2512-1.3424s-2.4709.4489-3.3351,1.3424c-.86.8935-1.2795,2.0975-1.2795,3.6077v15.3832c0,.1678-.0545.3062-.1678.4195-.1091.1133-.2517.1678-.4153.1678h-4.5013c-.1678,0-.3062-.0545-.4153-.1678s-.1678-.2517-.1678-.4195v-15.3245c0-1.5396-.4153-2.7394-1.2501-3.6371-.8348-.8935-1.9171-1.3424-3.2763-1.3424-1.2501,0-2.2779.365-3.1127,1.0907-.8055.7257-1.2753,1.7326-1.4179,2.9911v16.2222c0,.1678-.0545.3062-.1678.4195s-.2517.1678-.4153.1678h-4.5558c-.1678,0-.3062-.0545-.4153-.1678-.1133-.1133-.1678-.2517-.1678-.4195v-24.3019c0-.1678.0545-.3062.1678-.4195.1091-.1133.2517-.1678.4153-.1678h4.5558c.1678,0,.3062.0545.4153.1678.1091.1133.1678.2517.1678.4195v1.6487s.0294.1678.1091.1972c.0545.0294.1384,0,.193-.1133.7215-.9229,1.6403-1.6235,2.6932-2.0682,1.0823-.4489,2.2779-.6712,3.5826-.6712,1.6109,0,3.0288.3356,4.2789,1.0068,1.2208.6712,2.1646,1.6235,2.8317,2.9072.1091.1384.2223.1384.3314,0,.7215-1.3424,1.7242-2.3199,3.0288-2.9365,1.2753-.6418,2.7226-.9523,4.3041-.9523,2.5548,0,4.5264.7845,5.9695,2.3199l-.0294-.0545h.0168ZM244.0233,26.0682c1.5815.7257,2.8065,1.7326,3.6665,3.0204.86,1.2879,1.2753,2.7394,1.2753,4.3628v16.8347c0,.1678-.0545.3062-.1678.4195-.1091.1133-.2517.1678-.4153.1678h-4.5558c-.1678,0-.3062-.0545-.4153-.1678-.1091-.1133-.1678-.2517-.1678-.4195v-1.5941s-.0294-.1678-.1133-.1678-.1384,0-.193.0839c-1.6109,1.7913-3.9727,2.6848-7.0267,2.6848-2.4709,0-4.5264-.6418-6.1373-1.9004-1.6109-1.2585-2.4163-3.1337-2.4163-5.6507s.8893-4.6145,2.6932-6.0702c1.8039-1.4557,4.3335-2.1814,7.6098-2.1814h5.3025c.1678,0,.2517-.0839.2517-.2517v-1.204c0-1.2879-.3901-2.2947-1.1369-3.0204-.7509-.7257-1.8878-1.0613-3.4148-1.0613-1.2501,0-2.2779.2223-3.054.6712-.7761.4489-1.2753,1.0613-1.4725,1.8752-.1133.3901-.3314.5579-.6964.5034l-4.8033-.5873c-.1678-.0294-.3062-.0839-.4153-.1678-.1091-.0839-.1678-.1972-.1091-.3356.2517-2.043,1.334-3.6916,3.2512-5.0047,1.9171-1.313,4.2789-1.9591,7.1651-1.9591,2.0849,0,3.9182.365,5.4997,1.0907v.0294h-.0041ZM241.4936,45.3947c1.1662-.8684,1.72-1.9591,1.72-3.3015v-2.3492c0-.1678-.0839-.2517-.2517-.2517h-4.1657c-1.7493,0-3.1379.3356-4.1363,1.0068s-1.5018,1.6235-1.5018,2.8526c0,1.0613.3901,1.9004,1.1662,2.4625.7761.5873,1.7787.8684,2.9995.8684,1.6109,0,2.9995-.4489,4.1657-1.2879h.0042ZM253.6341,50.7056s-.1678-.2517-.1678-.4195V16.5328c0-.1678.0545-.3062.1678-.4195s.2517-.1678.4153-.1678h4.5558c.1678,0,.3062.0545.4153.1678s.1678.2517.1678.4195v33.7575c0,.1678-.0545.3062-.1678.4195s-.2517.1678-.4153.1678h-4.5558c-.1678,0-.3062-.0545-.4153-.1678v-.0042ZM264.4657,50.7056s-.1678-.2517-.1678-.4195V16.5328c0-.1678.0545-.3062.1678-.4195.1091-.1133.2517-.1678.4153-.1678h4.5558c.1678,0,.3062.0545.4153.1678.1133.1133.1678.2517.1678.4195v33.7575c0,.1678-.0545.3062-.1678.4195s-.2517.1678-.4153.1678h-4.5558c-.1678,0-.3062-.0545-.4153-.1678v-.0042ZM304.9898,20.7531s-.2517.1678-.4153.1678h-14.0828c-.1678,0-.2517.0839-.2517.2517v9.3424c0,.1678.0839.2517.2517.2517h11.3602c.1678,0,.3062.0545.4153.1678.1091.1133.1678.2517.1678.4195v3.8049c0,.1678-.0545.3062-.1678.4195-.1091.1133-.2517.1678-.4153.1678h-11.3602c-.1678,0-.2517.0839-.2517.2517v14.2925c0,.1678-.0545.3062-.1678.4195s-.2517.1678-.4153.1678h-4.5558c-.1678,0-.3062-.0545-.4153-.1678-.1091-.1133-.1678-.2517-.1678-.4195V16.5328c0-.1678.0545-.3062.1678-.4195s.2517-.1678.4153-.1678h19.4692c.1678,0,.3062.0545.4153.1678.1133.1133.1678.2517.1678.4195v3.8049c0,.1678-.0545.3062-.1678.4195l.0042-.0042ZM307.8214,20.8663c-.667-.6712-.9984-1.5102-.9984-2.5464s.3314-1.8752.9984-2.5464,1.4976-1.0068,2.5254-1.0068,1.8626.3356,2.5296,1.0068c.667.6712.9984,1.5102.9984,2.5464s-.3314,1.8752-.9984,2.5464c-.667.6712-1.5018,1.0068-2.5296,1.0068s-1.8626-.3356-2.5254-1.0068ZM307.5697,50.7056s-.1678-.2517-.1678-.4195v-24.3606c0-.1678.0545-.3062.1678-.4195.1091-.1133.2517-.1678.4153-.1678h4.5558c.1678,0,.3062.0545.4153.1678s.1678.2517.1678.4195v24.3606c0,.1678-.0545.3062-.1678.4195s-.2517.1678-.4153.1678h-4.5558c-.1678,0-.3062-.0545-.4153-.1678ZM321.6818,50.261c-1.5815-.6167-2.7771-1.4557-3.6371-2.5464-.86-1.0907-1.2795-2.2947-1.2795-3.6077v-.4489c0-.1678.0545-.3062.1678-.4195s.2517-.1678.4153-.1678h4.3587c.1678,0,.3062.0545.4153.1678.1133.1133.1678.2517.1678.4195v.1133c0,.839.4447,1.5648,1.3592,2.1814.9145.6167,2.0556.9229,3.4441.9229s2.387-.2811,3.2218-.8096c.8348-.5579,1.2501-1.2291,1.2501-2.0682,0-.7551-.3314-1.3424-1.0278-1.7326-.667-.3901-1.7787-.7845-3.3057-1.2291l-1.8878-.5873c-1.6948-.5034-3.1085-1.0362-4.2789-1.5941-1.1662-.5579-2.1395-1.3424-2.9156-2.3199-.8054-.9774-1.1956-2.236-1.1956-3.7755,0-2.3199.9145-4.195,2.7226-5.5668,1.8039-1.3718,4.2202-2.0682,7.1945-2.0682,2.0262,0,3.7755.3356,5.3067.9774,1.527.6418,2.6932,1.5396,3.528,2.6848.8348,1.1452,1.2501,2.4625,1.2501,3.914,0,.1678-.0545.3062-.1678.4195-.1091.1133-.2517.1678-.4153.1678h-4.2202c-.1678,0-.3062-.0545-.4153-.1678-.1091-.1133-.1678-.2517-.1678-.4195,0-.8684-.4153-1.5941-1.2753-2.1814-.8348-.5873-2.001-.8684-3.4441-.8684-1.2795,0-2.3324.2517-3.1379.7257-.8054.474-1.2207,1.1452-1.2207,2.0136,0,.8096.3901,1.3969,1.1662,1.8165.7761.4195,2.0849.8684,3.8888,1.3718l1.0823.3062c1.7493.5328,3.2218,1.0613,4.4174,1.6235,1.1956.5579,2.194,1.313,3.0288,2.2947.8348.9774,1.2501,2.2653,1.2501,3.8301,0,2.3492-.9145,4.2244-2.7771,5.5668-1.8626,1.3424-4.3041,2.0136-7.3875,2.0136-2.0849,0-3.9182-.3062-5.4703-.9229v-.0294h-.0084ZM358.7618,27.3561c1.6109,1.5941,2.4163,3.7755,2.4163,6.5443v16.3607c0,.1678-.0545.3062-.1678.4195-.1091.1133-.2517.1678-.4153.1678h-4.5558c-.1678,0-.3062-.0545-.4153-.1678-.1091-.1133-.1678-.2517-.1678-.4195v-15.1861c0-1.5396-.4153-2.7687-1.2795-3.721-.86-.9523-2.001-1.4263-3.4148-1.4263s-2.5841.474-3.4441,1.3969c-.8893.9229-1.3047,2.1521-1.3047,3.6916v15.2154c0,.1678-.0545.3062-.1678.4195-.1091.1133-.2517.1678-.4153.1678h-4.5558c-.1678,0-.3062-.0545-.4153-.1678s-.1678-.2517-.1678-.4195V16.5328c0-.1678.0545-.3062.1678-.4195s.2517-.1678.4153-.1678h4.5558c.1678,0,.3062.0545.4153.1678.1133.1133.1678.2517.1678.4195v11.0204s.0294.1678.1091.1972c.0545.0294.1133,0,.1384-.1133,1.3592-1.7913,3.4148-2.6848,6.1373-2.6848s4.8033.8096,6.4142,2.4038h-.0545.0042Z" style="fill:#000; stroke-width:0px;"/><path d="M20.335.2797l27.3481,27.3481c2.9835,2.9835,2.9835,7.8207,0,10.8042l-27.3481,27.3481c-.3729.3729-.9776.3729-1.3505,0l-5.3345-5.3345c-.3729-.3729-.3729-.9776,0-1.3505l7.6599-7.6599c1.97-1.97,3.0767-4.6395,3.0767-7.4255,0-7.0186,0-14.9812,0-21.9595,0-2.786-1.1067-5.4554-3.0767-7.4254l-7.6599-7.6599c-.3729-.3729-.3729-.9776,0-1.3505L18.9844.2797c.3729-.3729.9776-.3729,1.3505,0ZM5.6142,13.6499L.2797,18.9844c-.3729.3729-.3729.9776,0,1.3505l9.3186,9.3186c1.8647,1.8647,1.8647,4.8879,0,6.7526L.2797,45.7248c-.3729.3729-.3729.9776,0,1.3505l5.3346,5.3346c.3729.3729.9776.3729,1.3505,0l4.8914-4.8913c1.97-1.97,3.0767-4.6418,3.0767-7.4278,0-4.5498,0-9.5841,0-14.122,0-2.7859-1.1067-5.4575-3.0766-7.4274l-4.8915-4.8915c-.3729-.3729-.9776-.3729-1.3505,0Z" style="fill:#000; stroke-width:0px;"/></g></g></svg>